{
    "asset" : {
        "generator" : "Khronos glTF Blender I/O v3.3.27",
        "version" : "2.0"
    },
    "extensionsUsed" : [
        "KHR_materials_specular",
        "KHR_materials_ior"
    ],
    "scene" : 0,
    "scenes" : [
        {
            "name" : "Scene",
            "nodes" : [
                0,
                1,
                2
            ]
        }
    ],
    "nodes" : [
        {
            "mesh" : 0,
            "name" : "PinsA",
            "rotation" : [
                -0.3309912085533142,
                -0.14135803282260895,
                0.008183952420949936,
                0.9329500198364258
            ],
            "translation" : [
                -0.688884973526001,
                -0.05599155277013779,
                -0.203774556517601
            ]
        },
        {
            "mesh" : 1,
            "name" : "PinsB",
            "rotation" : [
                -0.23983295261859894,
                0.5597401261329651,
                -0.2282591164112091,
                0.7596505284309387
            ],
            "translation" : [
                -0.19156336784362793,
                0.46538183093070984,
                0.5156983137130737
            ]
        },
        {
            "mesh" : 2,
            "name" : "Body",
            "rotation" : [
                -0.3309912085533142,
                -0.14135803282260895,
                0.008183901198208332,
                0.9329500198364258
            ],
            "scale" : [
                1.111990213394165,
                0.20320329070091248,
                1.111990213394165
            ],
            "translation" : [
                0.0028063375502824783,
                0.02798072248697281,
                -0.022216344252228737
            ]
        }
    ],
    "materials" : [
        {
            "doubleSided" : true,
            "name" : "Material.003",
            "pbrMetallicRoughness" : {
                "baseColorFactor" : [
                    0.800000011920929,
                    0.800000011920929,
                    0.800000011920929,
                    1
                ],
                "metallicFactor" : 0.6363636255264282,
                "roughnessFactor" : 0.5
            }
        },
        {
            "doubleSided" : true,
            "extensions" : {
                "KHR_materials_specular" : {
                    "specularColorFactor" : [
                        1.1210053380693559,
                        1.1210053380693559,
                        1.1210053380693559
                    ]
                },
                "KHR_materials_ior" : {
                    "ior" : 1.4500000476837158
                }
            },
            "name" : "Material.004",
            "pbrMetallicRoughness" : {
                "baseColorFactor" : [
                    0.020557353273034096,
                    0.020557353273034096,
                    0.020557353273034096,
                    1
                ],
                "metallicFactor" : 0.30681800842285156,
                "roughnessFactor" : 0.8227272033691406
            }
        }
    ],
    "meshes" : [
        {
            "name" : "Point.002",
            "primitives" : [
                {
                    "attributes" : {
                        "POSITION" : 0,
                        "NORMAL" : 1,
                        "TEXCOORD_0" : 2
                    },
                    "indices" : 3,
                    "material" : 0
                }
            ]
        },
        {
            "name" : "Point.001",
            "primitives" : [
                {
                    "attributes" : {
                        "POSITION" : 4,
                        "NORMAL" : 5,
                        "TEXCOORD_0" : 6
                    },
                    "indices" : 3,
                    "material" : 0
                }
            ]
        },
        {
            "name" : "Cube.002",
            "primitives" : [
                {
                    "attributes" : {
                        "POSITION" : 7,
                        "NORMAL" : 8,
                        "TEXCOORD_0" : 9
                    },
                    "indices" : 10,
                    "material" : 1
                }
            ]
        }
    ],
    "accessors" : [
        {
            "bufferView" : 0,
            "componentType" : 5126,
            "count" : 899,
            "max" : [
                1.5610754489898682,
                0.08832293748855591,
                1.3901618719100952
            ],
            "min" : [
                -0.12130843847990036,
                -0.25716137886047363,
                -1.3898169994354248
            ],
            "type" : "VEC3"
        },
        {
            "bufferView" : 1,
            "componentType" : 5126,
            "count" : 899,
            "type" : "VEC3"
        },
        {
            "bufferView" : 2,
            "componentType" : 5126,
            "count" : 899,
            "type" : "VEC2"
        },
        {
            "bufferView" : 3,
            "componentType" : 5123,
            "count" : 3960,
            "type" : "SCALAR"
        },
        {
            "bufferView" : 4,
            "componentType" : 5126,
            "count" : 899,
            "max" : [
                1.5610754489898682,
                0.08832293748855591,
                1.3901618719100952
            ],
            "min" : [
                -0.12130843847990036,
                -0.25716137886047363,
                -1.3898169994354248
            ],
            "type" : "VEC3"
        },
        {
            "bufferView" : 5,
            "componentType" : 5126,
            "count" : 899,
            "type" : "VEC3"
        },
        {
            "bufferView" : 6,
            "componentType" : 5126,
            "count" : 899,
            "type" : "VEC2"
        },
        {
            "bufferView" : 7,
            "componentType" : 5126,
            "count" : 2207,
            "max" : [
                0.9444447755813599,
                0.9444447755813599,
                0.9444447159767151
            ],
            "min" : [
                -0.9444447159767151,
                -0.9444447755813599,
                -0.9444446563720703
            ],
            "type" : "VEC3"
        },
        {
            "bufferView" : 8,
            "componentType" : 5126,
            "count" : 2207,
            "type" : "VEC3"
        },
        {
            "bufferView" : 9,
            "componentType" : 5126,
            "count" : 2207,
            "type" : "VEC2"
        },
        {
            "bufferView" : 10,
            "componentType" : 5123,
            "count" : 2946,
            "type" : "SCALAR"
        }
    ],
    "bufferViews" : [
        {
            "buffer" : 0,
            "byteLength" : 10788,
            "byteOffset" : 0,
            "target" : 34962
        },
        {
            "buffer" : 0,
            "byteLength" : 10788,
            "byteOffset" : 10788,
            "target" : 34962
        },
        {
            "buffer" : 0,
            "byteLength" : 7192,
            "byteOffset" : 21576,
            "target" : 34962
        },
        {
            "buffer" : 0,
            "byteLength" : 7920,
            "byteOffset" : 28768,
            "target" : 34963
        },
        {
            "buffer" : 0,
            "byteLength" : 10788,
            "byteOffset" : 36688,
            "target" : 34962
        },
        {
            "buffer" : 0,
            "byteLength" : 10788,
            "byteOffset" : 47476,
            "target" : 34962
        },
        {
            "buffer" : 0,
            "byteLength" : 7192,
            "byteOffset" : 58264,
            "target" : 34962
        },
        {
            "buffer" : 0,
            "byteLength" : 26484,
            "byteOffset" : 65456,
            "target" : 34962
        },
        {
            "buffer" : 0,
            "byteLength" : 26484,
            "byteOffset" : 91940,
            "target" : 34962
        },
        {
            "buffer" : 0,
            "byteLength" : 17656,
            "byteOffset" : 118424,
            "target" : 34962
        },
        {
            "buffer" : 0,
            "byteLength" : 5892,
            "byteOffset" : 136080,
            "target" : 34963
        }
    ],
    "buffers" : [
        {
            "byteLength" : 141972,
            "uri" : "data:application/octet-stream;base64,"
        }
    ]
}
