{
    "asset" : {
        "generator" : "Khronos glTF Blender I/O v3.3.27",
        "version" : "2.0"
    },
    "extensionsUsed" : [
        "KHR_materials_specular",
        "KHR_materials_ior"
    ],
    "scene" : 0,
    "scenes" : [
        {
            "name" : "Scene",
            "nodes" : [
                0,
                1,
                2
            ]
        }
    ],
    "nodes" : [
        {
            "mesh" : 0,
            "name" : "Cube",
            "rotation" : [
                -0.3309912085533142,
                -0.14135803282260895,
                0.008183901198208332,
                0.9329500198364258
            ],
            "scale" : [
                1.111990213394165,
                0.20320329070091248,
                1.111990213394165
            ],
            "translation" : [
                0.0028063375502824783,
                0.02798072248697281,
                -0.022216344252228737
            ]
        },
        {
            "mesh" : 1,
            "name" : "Point.004",
            "rotation" : [
                -0.3309912085533142,
                -0.14135803282260895,
                0.008183952420949936,
                0.9329500198364258
            ],
            "translation" : [
                -0.688884973526001,
                -0.05599155277013779,
                -0.203774556517601
            ]
        },
        {
            "mesh" : 2,
            "name" : "Point.001",
            "rotation" : [
                -0.23983295261859894,
                0.5597401261329651,
                -0.2282591164112091,
                0.7596505284309387
            ],
            "translation" : [
                -0.19156336784362793,
                0.46538183093070984,
                0.5156983137130737
            ]
        }
    ],
    "materials" : [
        {
            "doubleSided" : true,
            "extensions" : {
                "KHR_materials_specular" : {
                    "specularColorFactor" : [
                        1.1210053380693559,
                        1.1210053380693559,
                        1.1210053380693559
                    ]
                },
                "KHR_materials_ior" : {
                    "ior" : 1.4500000476837158
                }
            },
            "name" : "Material.001",
            "pbrMetallicRoughness" : {
                "baseColorFactor" : [
                    0.020557353273034096,
                    0.020557353273034096,
                    0.020557353273034096,
                    1
                ],
                "metallicFactor" : 0.30681800842285156,
                "roughnessFactor" : 0.8227272033691406
            }
        },
        {
            "doubleSided" : true,
            "name" : "Material.002",
            "pbrMetallicRoughness" : {
                "baseColorFactor" : [
                    0.800000011920929,
                    0.800000011920929,
                    0.800000011920929,
                    1
                ],
                "metallicFactor" : 0.6363636255264282,
                "roughnessFactor" : 0.5
            }
        }
    ],
    "meshes" : [
        {
            "name" : "Cube.001",
            "primitives" : [
                {
                    "attributes" : {
                        "POSITION" : 0,
                        "NORMAL" : 1,
                        "TEXCOORD_0" : 2
                    },
                    "indices" : 3,
                    "material" : 0
                }
            ]
        },
        {
            "name" : "Point.004",
            "primitives" : [
                {
                    "attributes" : {
                        "POSITION" : 4,
                        "NORMAL" : 5,
                        "TEXCOORD_0" : 6
                    },
                    "indices" : 7,
                    "material" : 1
                }
            ]
        },
        {
            "name" : "Point.005",
            "primitives" : [
                {
                    "attributes" : {
                        "POSITION" : 8,
                        "NORMAL" : 9,
                        "TEXCOORD_0" : 10
                    },
                    "indices" : 7,
                    "material" : 1
                }
            ]
        }
    ],
    "accessors" : [
        {
            "bufferView" : 0,
            "componentType" : 5126,
            "count" : 3958,
            "max" : [
                0.9444447755813599,
                0.9444447755813599,
                0.9444447159767151
            ],
            "min" : [
                -0.9444447159767151,
                -0.9444447755813599,
                -0.9444446563720703
            ],
            "type" : "VEC3"
        },
        {
            "bufferView" : 1,
            "componentType" : 5126,
            "count" : 3958,
            "type" : "VEC3"
        },
        {
            "bufferView" : 2,
            "componentType" : 5126,
            "count" : 3958,
            "type" : "VEC2"
        },
        {
            "bufferView" : 3,
            "componentType" : 5123,
            "count" : 5016,
            "type" : "SCALAR"
        },
        {
            "bufferView" : 4,
            "componentType" : 5126,
            "count" : 4507,
            "max" : [
                1.5601720809936523,
                0.08832293748855591,
                1.390028476715088
            ],
            "min" : [
                -0.1204928308725357,
                -0.25813060998916626,
                -1.3900692462921143
            ],
            "type" : "VEC3"
        },
        {
            "bufferView" : 5,
            "componentType" : 5126,
            "count" : 4507,
            "type" : "VEC3"
        },
        {
            "bufferView" : 6,
            "componentType" : 5126,
            "count" : 4507,
            "type" : "VEC2"
        },
        {
            "bufferView" : 7,
            "componentType" : 5123,
            "count" : 23775,
            "type" : "SCALAR"
        },
        {
            "bufferView" : 8,
            "componentType" : 5126,
            "count" : 4507,
            "max" : [
                1.5601720809936523,
                0.08832293748855591,
                1.390028476715088
            ],
            "min" : [
                -0.1204928308725357,
                -0.25813060998916626,
                -1.3900692462921143
            ],
            "type" : "VEC3"
        },
        {
            "bufferView" : 9,
            "componentType" : 5126,
            "count" : 4507,
            "type" : "VEC3"
        },
        {
            "bufferView" : 10,
            "componentType" : 5126,
            "count" : 4507,
            "type" : "VEC2"
        }
    ],
    "bufferViews" : [
        {
            "buffer" : 0,
            "byteLength" : 47496,
            "byteOffset" : 0,
            "target" : 34962
        },
        {
            "buffer" : 0,
            "byteLength" : 47496,
            "byteOffset" : 47496,
            "target" : 34962
        },
        {
            "buffer" : 0,
            "byteLength" : 31664,
            "byteOffset" : 94992,
            "target" : 34962
        },
        {
            "buffer" : 0,
            "byteLength" : 10032,
            "byteOffset" : 126656,
            "target" : 34963
        },
        {
            "buffer" : 0,
            "byteLength" : 54084,
            "byteOffset" : 136688,
            "target" : 34962
        },
        {
            "buffer" : 0,
            "byteLength" : 54084,
            "byteOffset" : 190772,
            "target" : 34962
        },
        {
            "buffer" : 0,
            "byteLength" : 36056,
            "byteOffset" : 244856,
            "target" : 34962
        },
        {
            "buffer" : 0,
            "byteLength" : 47550,
            "byteOffset" : 280912,
            "target" : 34963
        },
        {
            "buffer" : 0,
            "byteLength" : 54084,
            "byteOffset" : 328464,
            "target" : 34962
        },
        {
            "buffer" : 0,
            "byteLength" : 54084,
            "byteOffset" : 382548,
            "target" : 34962
        },
        {
            "buffer" : 0,
            "byteLength" : 36056,
            "byteOffset" : 436632,
            "target" : 34962
        }
    ],
    "buffers" : [
        {
            "byteLength" : 472688,
            "uri" : "data:application/octet-stream;base64,"
        }
    ]
}
