<?xml version="1.0" encoding="UTF-8"?><svg id="a" xmlns="http://www.w3.org/2000/svg" viewBox="0 0 150 150"><defs><style>.b,.c,.d,.e{strokeWidth:0px;}.c{fill:#4c7bb1;}.d{fill:#fff;}.e{fill:#005890;}</style></defs><rect class="b" width="150" height="150" rx="25.102" ry="25.102"/><path class="e" d="m13.078,117.188V32.813h84.375c23.3,0,42.188,18.887,42.188,42.187s-18.887,42.188-42.188,42.188h-42.187v-10.547h42.187c17.474,0,31.641-14.167,31.641-31.641s-14.167-31.641-31.641-31.641H23.625v73.828h-10.547Z"/><path class="c" d="m97.453,53.906h-63.281v63.281h10.547v-21.094h52.734c11.648,0,21.094-9.446,21.094-21.094s-9.446-21.094-21.094-21.094Zm0,31.641h-52.734v-21.094h52.734c5.826,0,10.547,4.721,10.547,10.547s-4.721,10.547-10.547,10.547Z"/><path class="d" d="m13.078,117.188V32.813h84.375c23.3,0,42.188,18.887,42.188,42.187s-18.887,42.188-42.188,42.188h-42.187v-10.547h42.187c17.474,0,31.641-14.167,31.641-31.641s-14.167-31.641-31.641-31.641H23.625v73.828h-10.547Z"/><path class="d" d="m97.453,53.906h-63.281v63.281h10.547v-21.094h52.734c11.648,0,21.094-9.446,21.094-21.094s-9.446-21.094-21.094-21.094Zm0,31.641h-52.734v-21.094h52.734c5.826,0,10.547,4.721,10.547,10.547s-4.721,10.547-10.547,10.547Z"/></svg>